<svg width="79" height="44" viewBox="0 0 79 44" fill="none" xmlns="http://www.w3.org/2000/svg">
<path d="M9.8842 1.361H6.9242C7.0042 1.841 7.0842 2.761 7.0842 3.201C7.0642 8.481 6.1442 11.881 3.5242 14.481C2.7242 15.301 1.7242 15.961 0.884202 16.421L3.2242 18.301C7.6442 15.161 9.5242 11.101 9.7442 3.161C9.7642 2.681 9.8242 1.841 9.8842 1.361ZM16.6642 5.661L14.9442 4.801C14.4642 4.901 13.9442 4.941 13.4242 4.941H4.1642C3.4042 4.941 2.3842 4.901 1.5442 4.801V7.441C2.3842 7.361 3.5042 7.341 4.1842 7.341H13.9442C13.9442 9.501 13.6642 13.501 13.0842 14.761C12.8842 15.261 12.6042 15.481 11.9642 15.481C11.1642 15.481 10.1442 15.361 9.1442 15.201L9.4642 17.861C10.4442 17.941 11.6242 18.041 12.7842 18.041C14.1442 18.041 14.9242 17.501 15.3442 16.501C16.2042 14.461 16.4642 8.881 16.5442 6.701C16.5442 6.481 16.6042 5.981 16.6642 5.661ZM34.8242 1.021L33.2242 1.681C33.7642 2.441 34.3842 3.641 34.8042 4.461L36.4042 3.761C36.0242 3.021 35.3242 1.761 34.8242 1.021ZM37.1842 0.121001L35.6042 0.781C36.1442 1.521 36.7842 2.701 37.2042 3.521L38.8042 2.841C38.4442 2.141 37.7042 0.881 37.1842 0.121001ZM36.6042 5.421L34.5642 4.161C34.1042 4.321 33.4442 4.401 32.8242 4.401C32.1842 4.401 28.0042 4.401 27.1042 4.401L26.1842 6.681H32.9242C32.6042 8.161 31.4442 10.561 30.0842 12.121C28.3442 14.101 26.1242 15.841 22.0242 17.081L24.3842 19.181C28.1442 17.701 30.5642 15.861 32.4642 13.541C34.2642 11.321 35.4042 8.641 35.9442 6.861C36.1042 6.361 36.3842 5.821 36.6042 5.421ZM30.0842 2.261L27.1642 1.301C26.9842 1.981 26.5642 2.921 26.2642 3.401C25.2642 5.121 23.5242 7.701 20.0042 9.841L22.2642 11.501C25.1242 9.541 27.5242 6.721 28.8642 4.301C29.1042 3.881 29.6242 2.961 30.0842 2.261ZM49.8842 1.361H46.9242C47.0042 1.841 47.0842 2.761 47.0842 3.201C47.0642 8.481 46.1442 11.881 43.5242 14.481C42.7242 15.301 41.7242 15.961 40.8842 16.421L43.2242 18.301C47.6442 15.161 49.5242 11.101 49.7442 3.161C49.7642 2.681 49.8242 1.841 49.8842 1.361ZM56.6642 5.661L54.9442 4.801C54.4642 4.901 53.9442 4.941 53.4242 4.941H44.1642C43.4042 4.941 42.3842 4.901 41.5442 4.801V7.441C42.3842 7.361 43.5042 7.341 44.1842 7.341H53.9442C53.9442 9.501 53.6642 13.501 53.0842 14.761C52.8842 15.261 52.6042 15.481 51.9642 15.481C51.1642 15.481 50.1442 15.361 49.1442 15.201L49.4642 17.861C50.4442 17.941 51.6242 18.041 52.7842 18.041C54.1442 18.041 54.9242 17.501 55.3442 16.501C56.2042 14.461 56.4642 8.881 56.5442 6.701C56.5442 6.481 56.6042 5.981 56.6642 5.661ZM69.2442 7.261C67.8242 7.261 66.6842 8.401 66.6842 9.801C66.6842 11.221 67.8242 12.361 69.2442 12.361C70.6442 12.361 71.7842 11.221 71.7842 9.801C71.7842 8.401 70.6442 7.261 69.2442 7.261ZM17.0242 28.101L15.0442 26.841C14.5042 26.961 13.8642 26.981 13.4842 26.981C12.3642 26.981 5.7242 26.981 4.2242 26.981C3.5642 26.981 2.4442 26.901 1.8442 26.821V29.641C2.3642 29.621 3.3042 29.561 4.2242 29.561C5.7242 29.561 12.3242 29.561 13.5442 29.561C13.2642 31.281 12.5242 33.541 11.1842 35.221C9.5642 37.241 7.3242 38.981 3.3442 39.901L5.5242 42.301C9.1042 41.161 11.7642 39.161 13.5642 36.781C15.2442 34.541 16.1242 31.441 16.5842 29.481C16.6842 29.061 16.8242 28.481 17.0242 28.101ZM32.7042 28.961H30.1042C30.2042 29.521 30.2642 30.141 30.2642 30.641C30.3842 33.261 30.4642 37.941 30.4642 40.181C30.4642 40.601 30.3042 40.801 29.9242 40.801C29.4042 40.801 28.4442 40.741 27.6442 40.641L27.7842 42.921C28.6842 42.981 29.9242 43.021 30.8842 43.021C32.0642 43.021 32.8642 42.301 32.8442 41.261C32.8042 38.081 32.6842 33.261 32.6042 30.641C32.6042 30.101 32.6242 29.461 32.7042 28.961ZM23.0642 31.721V34.201C23.6242 34.161 24.3642 34.121 24.9442 34.121C25.8042 34.121 34.4842 34.121 35.1042 34.121C35.5242 34.121 36.1642 34.141 36.6242 34.161V31.721C36.2842 31.781 35.5042 31.841 34.9842 31.841C34.2042 31.841 26.0042 31.841 24.8842 31.841C24.3442 31.841 23.5442 31.801 23.0642 31.721ZM22.2042 39.501L23.9442 41.481C26.7442 40.021 29.9842 37.201 31.0242 35.321L30.9842 33.381L29.6842 33.361C28.6042 35.321 25.4242 38.021 22.2042 39.501ZM49.2842 40.961L50.9642 42.341C51.1642 42.201 51.4042 41.981 51.8242 41.761C54.0842 40.621 56.9442 38.461 58.6042 36.301L57.0842 34.081C55.7242 36.021 53.7642 37.601 52.1242 38.301C52.1242 37.081 52.1242 29.461 52.1242 27.861C52.1242 26.961 52.2642 26.161 52.2642 26.121H49.3042C49.3042 26.161 49.4442 26.941 49.4442 27.841C49.4442 29.461 49.4442 38.441 49.4442 39.501C49.4442 40.041 49.3842 40.581 49.2842 40.961ZM40.0242 40.681L42.4642 42.301C44.1842 40.781 45.4242 38.801 46.0442 36.561C46.5642 34.541 46.6242 30.321 46.6242 27.941C46.6242 27.121 46.7642 26.221 46.7642 26.141H43.8242C43.9442 26.641 44.0242 27.161 44.0242 27.981C44.0242 30.381 44.0042 34.181 43.4242 35.881C42.8842 37.601 41.8042 39.441 40.0242 40.681ZM78.2842 28.801L76.3042 27.181C75.8642 27.321 75.2042 27.401 74.4242 27.401C72.2842 27.401 64.6042 27.401 63.3442 27.401C62.6442 27.401 61.5642 27.301 61.0242 27.201V30.021C61.4442 29.961 62.5242 29.861 63.3442 29.861C64.8642 29.861 72.1442 29.861 73.9042 29.861C72.8642 31.701 70.6242 34.421 67.9842 36.261L69.9842 38.101C73.0842 35.821 76.0442 32.221 77.6042 29.641C77.7642 29.401 78.0042 29.121 78.2842 28.801ZM67.7442 38.401C69.0442 39.721 70.7242 41.601 71.5442 42.721L73.9042 40.841C72.9442 39.681 71.3642 38.021 70.0442 36.741C68.5242 35.281 66.5242 33.661 65.4442 32.841L63.3442 34.561C64.5242 35.401 66.5642 37.221 67.7442 38.401Z" fill="white"/>
</svg>
